PathFileType	4	(X/Y/Z)	D:\telocate\uwb03-Unnamed.trc
DataRate	CameraRate	NumFrames	NumMarkers	Units	OrigDataRate	OrigDataStartFrame	OrigNumFrames
100.00	100.00	      155	0	mm	100.00	2493	      9968
Frame#	Time	
		

2493	24.920	129.40974	-155.40012	1208.76099	
2494	24.930	129.11539	-154.84335	1208.67932	
2495	24.940	129.25854	-154.31410	1208.69727	
2496	24.950	129.28633	-153.94273	1208.71863	
2497	24.960	129.30653	-153.43185	1208.76123	
2498	24.970	129.27832	-153.08281	1208.78210	
2499	24.980	129.12204	-152.71529	1208.72180	
2500	24.990	129.27301	-151.72293	1208.51184	
2501	25.000	129.33435	-151.04446	1208.42920	
2502	25.010	129.32457	-150.77711	1208.36389	
2503	25.020	129.27538	-150.33128	1208.27307	
2504	25.030	129.34070	-149.79454	1208.25464	
2505	25.040	129.44472	-149.49649	1208.29041	
2506	25.050	129.42297	-149.33022	1208.32410	
2507	25.060	129.23634	-149.22285	1208.43115	
2508	25.070	129.23166	-148.96626	1208.47192	
2509	25.080	129.21436	-148.75949	1208.49622	
2510	25.090	129.20613	-148.54292	1208.48755	
2511	25.100	129.16652	-148.12766	1208.53772	
2512	25.110	129.29605	-148.01041	1208.53174	
2513	25.120	129.40685	-147.62747	1208.69849	
2514	25.130	129.41498	-147.36711	1208.62854	
2515	25.140	129.44099	-147.19373	1208.62976	
2516	25.150	129.70941	-146.78238	1208.70789	
2517	25.160	129.99734	-146.24959	1208.69080	
2518	25.170	130.32784	-145.52036	1208.64819	
2519	25.180	130.55962	-145.13542	1208.63159	
2520	25.190	130.68202	-144.85983	1208.55286	
2521	25.200	130.76814	-144.36673	1208.46216	
2522	25.210	130.92282	-143.95880	1208.60205	
2523	25.220	131.01796	-143.61681	1208.58569	
2524	25.230	131.28188	-143.12985	1208.55847	
2525	25.240	131.55096	-142.57491	1208.52734	
2526	25.250	131.58456	-142.30664	1208.57532	
2527	25.260	131.43524	-141.74776	1208.63159	
2528	25.270	131.46906	-141.38956	1208.68481	
2529	25.280	131.75764	-140.42110	1208.48169	
2530	25.290	131.64545	-140.03810	1208.60535	
2531	25.300	131.84741	-139.48505	1208.51685	
2532	25.310	131.89005	-138.92299	1208.47314	
2533	25.320	131.96069	-138.40076	1208.52368	
2534	25.330	132.06082	-137.88367	1208.74280	
2535	25.340	132.02211	-137.75777	1208.80566	
2536	25.350	132.10326	-137.38071	1208.75989	
2537	25.360	132.12556	-136.98106	1208.71130	
2538	25.370	132.11981	-136.74568	1208.65955	
2539	25.380	132.19987	-136.53529	1208.67603	
2540	25.390	131.99898	-136.14491	1208.56738	
2541	25.400	132.03384	-135.94920	1208.53931	
2542	25.410	132.05142	-135.63481	1208.57471	
2543	25.420	132.01640	-135.45535	1208.55664	
2544	25.430	132.02179	-135.26352	1208.57922	
2545	25.440	132.03209	-134.94905	1208.62524	
2546	25.450	132.14980	-134.67970	1208.66553	
2547	25.460	132.29707	-133.85040	1208.54333	
2548	25.470	132.24762	-133.64134	1208.55676	
2549	25.480	132.47751	-133.49893	1208.49341	
2550	25.490	132.59286	-133.08536	1208.57703	
2551	25.500	132.63110	-132.92867	1208.52515	
2552	25.510	132.76277	-132.64093	1208.49536	
2553	25.520	132.82164	-132.32835	1208.44421	
2554	25.530	132.91864	-132.24928	1208.70752	
2555	25.540	133.07613	-132.01701	1208.75598	
2556	25.550	133.20737	-131.79657	1208.69629	
2557	25.560	133.27934	-131.44325	1208.74719	
2558	25.570	133.30830	-131.13791	1208.67297	
2559	25.580	133.32759	-130.79245	1208.77173	
2560	25.590	133.13000	-130.32408	1208.70557	
2561	25.600	133.30197	-129.88168	1208.69653	
2562	25.610	133.33553	-129.56372	1208.51282	
2563	25.620	133.27010	-129.31264	1208.55920	
2564	25.630	133.37804	-128.95897	1208.49573	
2565	25.640	133.61279	-128.72430	1208.26282	
2566	25.650	133.64415	-128.49034	1208.35913	
2567	25.660	133.79036	-127.80306	1208.19934	
2568	25.670	133.76860	-127.45880	1208.17407	
2569	25.680	133.65546	-127.36662	1208.11108	
2570	25.690	133.73132	-127.24883	1208.15405	
2571	25.700	133.61850	-127.21129	1208.12476	
2572	25.710	133.24336	-127.18158	1208.42725	
2573	25.720	133.38069	-126.92506	1208.27246	
2574	25.730	133.11919	-126.69426	1208.19153	
2575	25.740	132.91539	-126.50201	1208.55225	
2576	25.750	132.82722	-126.19917	1208.48792	
2577	25.760	132.85875	-126.00123	1208.23071	
2578	25.770	132.71004	-125.85629	1208.13269	
2579	25.780	132.52013	-125.80035	1208.37598	
2580	25.790	132.40036	-125.79533	1208.35522	
2581	25.800	132.14012	-125.95763	1208.46204	
2582	25.810	132.10204	-125.89787	1208.51453	
2583	25.820	132.12526	-125.82035	1208.54456	
2584	25.830	131.95695	-125.63279	1208.50513	
2585	25.840	131.89877	-125.53107	1208.44873	
2586	25.850	131.81419	-125.39055	1208.46021	
2587	25.860	131.67320	-125.34761	1208.42908	
2588	25.870	131.74313	-125.17805	1208.46082	
2589	25.880	131.78035	-125.11751	1208.41125	
2590	25.890	131.50676	-124.95409	1208.26624	
2591	25.900	131.55362	-124.84509	1208.28931	
2592	25.910	131.54938	-124.84256	1208.26624	
2593	25.920	131.47821	-124.83174	1208.29773	
2594	25.930	131.30768	-124.90096	1208.21680	
2595	25.940	131.05505	-124.87606	1208.16089	
2596	25.950	130.96669	-125.09307	1208.27075	
2597	25.960	130.79164	-125.21635	1208.21753	
2598	25.970	130.66634	-125.26293	1208.16370	
2599	25.980	130.77890	-125.27526	1208.23425	
2600	25.990	130.70285	-125.34760	1208.11157	
2601	26.000	130.67023	-125.36530	1208.16455	
2602	26.010	130.71204	-125.34861	1208.21228	
2603	26.020	130.78188	-125.33226	1208.29846	
2604	26.030	130.84363	-125.34692	1208.23804	
2605	26.040	130.80527	-125.41767	1208.19263	
2606	26.050	130.94145	-125.38600	1208.26416	
2607	26.060	130.78146	-125.55929	1208.17554	
2608	26.070	130.79085	-125.70564	1208.22302	
2609	26.080	130.83943	-125.76189	1208.19531	
2610	26.090	130.86313	-125.83075	1208.27405	
2611	26.100	130.96037	-125.86114	1208.32458	
2612	26.110	130.86601	-125.95789	1208.26440	
2613	26.120	130.95753	-125.96566	1208.17297	
2614	26.130	131.17786	-125.90898	1208.17249	
2615	26.140	131.29469	-125.96241	1208.22009	
2616	26.150	131.15868	-126.10587	1208.25696	
2617	26.160	131.52335	-125.95950	1208.23022	
2618	26.170	131.61053	-126.02139	1208.20447	
2619	26.180	131.47260	-126.16626	1208.13733	
2620	26.190	131.65984	-126.27099	1208.28760	
2621	26.200	131.58171	-126.57190	1208.23706	
2622	26.210	131.60623	-126.82066	1208.31848	
2623	26.220	131.57097	-126.99662	1208.26050	
2624	26.230	131.52072	-127.17755	1208.30139	
2625	26.240	131.56458	-127.25294	1208.26611	
2626	26.250	131.66670	-127.37749	1208.21179	
2627	26.260	131.66545	-127.50652	1208.32214	
2628	26.270	131.80847	-127.53043	1208.32568	
2629	26.280	131.90564	-127.61536	1208.30005	
2630	26.290	132.15411	-127.64388	1208.35510	
2631	26.300	132.37550	-127.76069	1208.31458	
2632	26.310	132.41800	-127.80964	1208.30652	
2633	26.320	132.48526	-127.89629	1208.28198	
2634	26.330	132.51663	-127.94636	1208.27576	
2635	26.340	132.23735	-128.51265	1208.40735	
2636	26.350	132.18338	-128.59843	1208.51794	
2637	26.360	131.98831	-128.85936	1208.50232	
2638	26.370	131.68285	-129.03932	1208.61267	
2639	26.380	131.52045	-129.05962	1208.57397	
2640	26.390	131.33351	-129.39555	1208.59180	
2641	26.400	131.07333	-129.47781	1208.63196	
2642	26.410	131.18617	-129.70010	1208.58850	
2643	26.420	131.13995	-129.85699	1208.52844	
2644	26.430	131.22958	-129.93488	1208.50183	
2645	26.440	131.19048	-130.16010	1208.33777	
2646	26.450	131.24915	-130.32843	1208.38232	
2647	26.460	131.59846	-130.42603	1208.47778	
